<mxfile host="Electron" modified="2023-06-28T09:59:02.291Z" agent="Mozilla/5.0 (Windows NT 10.0; Win64; x64) AppleWebKit/537.36 (KHTML, like Gecko) draw.io/21.5.1 Chrome/112.0.5615.204 Electron/24.6.0 Safari/537.36" version="21.5.1" etag="AH2RI770eywf3QTE0C59" type="device">
  <diagram id="stwC2E9u2HuQa0rXClpd" name="Page-1">
    <mxGraphModel dx="1036" dy="606" grid="1" gridSize="10" guides="1" tooltips="1" connect="1" arrows="1" fold="1" page="1" pageScale="1" pageWidth="850" pageHeight="1100" math="0" shadow="0">
      <root>
        <mxCell id="0" />
        <mxCell id="1" parent="0" />
        <mxCell id="14" style="edgeStyle=none;html=1;endArrow=none;endFill=0;" parent="1" source="7" target="8" edge="1">
          <mxGeometry relative="1" as="geometry" />
        </mxCell>
        <mxCell id="16" style="edgeStyle=none;html=1;endArrow=none;endFill=0;" parent="1" source="7" target="15" edge="1">
          <mxGeometry relative="1" as="geometry" />
        </mxCell>
        <mxCell id="7" value="Coach" style="shape=umlActor;verticalLabelPosition=bottom;verticalAlign=top;html=1;" parent="1" vertex="1">
          <mxGeometry x="80" y="180" width="30" height="60" as="geometry" />
        </mxCell>
        <mxCell id="8" value="UC-01. Prendre présences" style="ellipse;whiteSpace=wrap;html=1;" parent="1" vertex="1">
          <mxGeometry x="170" y="50" width="140" height="70" as="geometry" />
        </mxCell>
        <mxCell id="15" value="UC-02. Envoyer message" style="ellipse;whiteSpace=wrap;html=1;" parent="1" vertex="1">
          <mxGeometry x="320" y="270" width="140" height="70" as="geometry" />
        </mxCell>
        <mxCell id="18" value="&amp;lt;&amp;lt;extend&amp;gt;&amp;gt;" style="html=1;verticalAlign=bottom;labelBackgroundColor=none;endArrow=open;endFill=0;dashed=1;" parent="1" source="15" target="8" edge="1">
          <mxGeometry width="160" relative="1" as="geometry">
            <mxPoint x="290" y="230" as="sourcePoint" />
            <mxPoint x="450" y="230" as="targetPoint" />
          </mxGeometry>
        </mxCell>
        <mxCell id="21" value="Le coach n&#39;a pas reçu un message" style="shape=note2;boundedLbl=1;whiteSpace=wrap;html=1;size=25;verticalAlign=top;align=left;spacingLeft=5;" parent="1" vertex="1">
          <mxGeometry x="370" y="80" width="140" height="60" as="geometry" />
        </mxCell>
        <mxCell id="22" value="Condition" style="resizeWidth=1;part=1;strokeColor=none;fillColor=none;align=left;spacingLeft=5;" parent="21" vertex="1">
          <mxGeometry width="140" height="25" relative="1" as="geometry" />
        </mxCell>
        <mxCell id="48" style="edgeStyle=none;html=1;endArrow=none;endFill=0;" parent="1" source="43" target="47" edge="1">
          <mxGeometry relative="1" as="geometry" />
        </mxCell>
        <mxCell id="43" value="Utilisateur&lt;br&gt;" style="shape=umlActor;verticalLabelPosition=bottom;verticalAlign=top;html=1;" parent="1" vertex="1">
          <mxGeometry x="80" y="520" width="30" height="60" as="geometry" />
        </mxCell>
        <mxCell id="47" value="Offrir langue" style="ellipse;whiteSpace=wrap;html=1;" parent="1" vertex="1">
          <mxGeometry x="200" y="370" width="140" height="70" as="geometry" />
        </mxCell>
        <mxCell id="49" style="edgeStyle=none;html=1;endArrow=none;endFill=0;" parent="1" target="51" edge="1">
          <mxGeometry relative="1" as="geometry">
            <mxPoint x="120" y="555.1694915254237" as="sourcePoint" />
            <mxPoint x="350" y="600" as="targetPoint" />
          </mxGeometry>
        </mxCell>
        <mxCell id="51" value="Chercher échange" style="ellipse;whiteSpace=wrap;html=1;" parent="1" vertex="1">
          <mxGeometry x="310" y="450" width="140" height="70" as="geometry" />
        </mxCell>
        <mxCell id="53" value="Prendre contact" style="ellipse;whiteSpace=wrap;html=1;" parent="1" vertex="1">
          <mxGeometry x="270" y="599.9999999999999" width="140" height="70" as="geometry" />
        </mxCell>
        <mxCell id="54" style="edgeStyle=none;html=1;endArrow=none;endFill=0;" parent="1" source="55" target="56" edge="1">
          <mxGeometry relative="1" as="geometry" />
        </mxCell>
        <mxCell id="64" style="edgeStyle=none;html=1;endArrow=none;endFill=0;" parent="1" source="55" target="63" edge="1">
          <mxGeometry relative="1" as="geometry" />
        </mxCell>
        <mxCell id="68" style="edgeStyle=none;html=1;endArrow=none;endFill=0;" parent="1" source="55" target="67" edge="1">
          <mxGeometry relative="1" as="geometry" />
        </mxCell>
        <mxCell id="55" value="Utilisateur&lt;br&gt;" style="shape=umlActor;verticalLabelPosition=bottom;verticalAlign=top;html=1;" parent="1" vertex="1">
          <mxGeometry x="110" y="830" width="30" height="60" as="geometry" />
        </mxCell>
        <mxCell id="56" value="Offrir langue" style="ellipse;whiteSpace=wrap;html=1;" parent="1" vertex="1">
          <mxGeometry x="440" y="990" width="140" height="70" as="geometry" />
        </mxCell>
        <mxCell id="57" style="edgeStyle=none;html=1;endArrow=none;endFill=0;" parent="1" target="58" edge="1">
          <mxGeometry relative="1" as="geometry">
            <mxPoint x="150" y="865.1694915254237" as="sourcePoint" />
            <mxPoint x="380" y="910" as="targetPoint" />
          </mxGeometry>
        </mxCell>
        <mxCell id="58" value="Chercher échange" style="ellipse;whiteSpace=wrap;html=1;" parent="1" vertex="1">
          <mxGeometry x="440" y="720" width="140" height="70" as="geometry" />
        </mxCell>
        <mxCell id="59" style="edgeStyle=none;html=1;endArrow=none;endFill=0;" parent="1" source="55" target="60" edge="1">
          <mxGeometry relative="1" as="geometry">
            <mxPoint x="180" y="900" as="sourcePoint" />
            <mxPoint x="499.67" y="1126.58" as="targetPoint" />
          </mxGeometry>
        </mxCell>
        <mxCell id="60" value="Prendre contact" style="ellipse;whiteSpace=wrap;html=1;" parent="1" vertex="1">
          <mxGeometry x="355" y="889.9999999999999" width="140" height="70" as="geometry" />
        </mxCell>
        <mxCell id="61" value="&amp;lt;&amp;lt;extend&amp;gt;&amp;gt;" style="html=1;verticalAlign=bottom;labelBackgroundColor=none;endArrow=open;endFill=0;dashed=1;" parent="1" source="53" target="51" edge="1">
          <mxGeometry width="160" relative="1" as="geometry">
            <mxPoint x="377.38382017880645" y="281.8770909705354" as="sourcePoint" />
            <mxPoint x="272.58717494517293" y="128.12785658625376" as="targetPoint" />
          </mxGeometry>
        </mxCell>
        <mxCell id="62" value="&amp;lt;&amp;lt;include&amp;gt;&amp;gt;" style="html=1;verticalAlign=bottom;labelBackgroundColor=none;endArrow=open;endFill=0;dashed=1;" parent="1" source="60" target="58" edge="1">
          <mxGeometry width="160" relative="1" as="geometry">
            <mxPoint x="250" y="860" as="sourcePoint" />
            <mxPoint x="560" y="930" as="targetPoint" />
          </mxGeometry>
        </mxCell>
        <mxCell id="63" value="Se connecter" style="ellipse;whiteSpace=wrap;html=1;" parent="1" vertex="1">
          <mxGeometry x="670" y="790" width="140" height="70" as="geometry" />
        </mxCell>
        <mxCell id="65" value="&amp;lt;&amp;lt;include&amp;gt;&amp;gt;" style="html=1;verticalAlign=bottom;labelBackgroundColor=none;endArrow=open;endFill=0;dashed=1;" parent="1" source="60" target="63" edge="1">
          <mxGeometry width="160" relative="1" as="geometry">
            <mxPoint x="499.2514604063713" y="840.307023476108" as="sourcePoint" />
            <mxPoint x="600" y="1110" as="targetPoint" />
          </mxGeometry>
        </mxCell>
        <mxCell id="66" value="&amp;lt;&amp;lt;include&amp;gt;&amp;gt;" style="html=1;verticalAlign=bottom;labelBackgroundColor=none;endArrow=open;endFill=0;dashed=1;" parent="1" source="56" target="63" edge="1">
          <mxGeometry width="160" relative="1" as="geometry">
            <mxPoint x="481.8004285517188" y="909.7590528785831" as="sourcePoint" />
            <mxPoint x="443.3103741189209" y="1070.2475264117857" as="targetPoint" />
          </mxGeometry>
        </mxCell>
        <mxCell id="67" value="Créer un compte" style="ellipse;whiteSpace=wrap;html=1;" parent="1" vertex="1">
          <mxGeometry x="410" y="1120" width="140" height="70" as="geometry" />
        </mxCell>
        <mxCell id="69" value="Vérifier existence compte" style="ellipse;whiteSpace=wrap;html=1;" parent="1" vertex="1">
          <mxGeometry x="630" y="950" width="150" height="80" as="geometry" />
        </mxCell>
        <mxCell id="70" value="&amp;lt;&amp;lt;include&amp;gt;&amp;gt;" style="html=1;verticalAlign=bottom;labelBackgroundColor=none;endArrow=open;endFill=0;dashed=1;" parent="1" source="63" target="69" edge="1">
          <mxGeometry width="160" relative="1" as="geometry">
            <mxPoint x="554.9805717442678" y="1004.6835044883012" as="sourcePoint" />
            <mxPoint x="715.1070213019368" y="865.3417206070112" as="targetPoint" />
          </mxGeometry>
        </mxCell>
        <mxCell id="74" value="&amp;lt;&amp;lt;extend&amp;gt;&amp;gt;" style="html=1;verticalAlign=bottom;labelBackgroundColor=none;endArrow=open;endFill=0;dashed=1;" parent="1" source="67" target="69" edge="1">
          <mxGeometry width="160" relative="1" as="geometry">
            <mxPoint x="380" y="1080" as="sourcePoint" />
            <mxPoint x="540" y="1080" as="targetPoint" />
          </mxGeometry>
        </mxCell>
        <mxCell id="CwhkoXtGilKc5GVSmAXC-78" style="rounded=0;orthogonalLoop=1;jettySize=auto;html=1;endArrow=none;endFill=0;" edge="1" parent="1" source="CwhkoXtGilKc5GVSmAXC-74" target="CwhkoXtGilKc5GVSmAXC-77">
          <mxGeometry relative="1" as="geometry" />
        </mxCell>
        <mxCell id="CwhkoXtGilKc5GVSmAXC-97" style="edgeStyle=orthogonalEdgeStyle;rounded=0;orthogonalLoop=1;jettySize=auto;html=1;endArrow=none;endFill=0;" edge="1" parent="1" source="CwhkoXtGilKc5GVSmAXC-74" target="CwhkoXtGilKc5GVSmAXC-96">
          <mxGeometry relative="1" as="geometry">
            <Array as="points">
              <mxPoint x="370" y="1270" />
              <mxPoint x="370" y="1375" />
            </Array>
          </mxGeometry>
        </mxCell>
        <mxCell id="CwhkoXtGilKc5GVSmAXC-74" value="Utilisateur" style="shape=umlActor;verticalLabelPosition=bottom;verticalAlign=top;html=1;outlineConnect=0;" vertex="1" parent="1">
          <mxGeometry x="85" y="1240" width="30" height="60" as="geometry" />
        </mxCell>
        <mxCell id="CwhkoXtGilKc5GVSmAXC-77" value="UC01 - Chercher un lieu" style="ellipse;whiteSpace=wrap;html=1;" vertex="1" parent="1">
          <mxGeometry x="215" y="1400" width="140" height="70" as="geometry" />
        </mxCell>
        <mxCell id="CwhkoXtGilKc5GVSmAXC-80" value="UC03 - Sauvegarder un lieu" style="ellipse;whiteSpace=wrap;html=1;" vertex="1" parent="1">
          <mxGeometry x="25" y="1410" width="140" height="70" as="geometry" />
        </mxCell>
        <mxCell id="CwhkoXtGilKc5GVSmAXC-82" value="&amp;lt;&amp;lt;include&amp;gt;&amp;gt;" style="html=1;verticalAlign=bottom;labelBackgroundColor=none;endArrow=open;endFill=0;dashed=1;rounded=0;" edge="1" parent="1" source="CwhkoXtGilKc5GVSmAXC-80" target="CwhkoXtGilKc5GVSmAXC-77">
          <mxGeometry width="160" relative="1" as="geometry">
            <mxPoint x="340" y="1450" as="sourcePoint" />
            <mxPoint x="640" y="1560" as="targetPoint" />
          </mxGeometry>
        </mxCell>
        <mxCell id="CwhkoXtGilKc5GVSmAXC-83" style="rounded=0;orthogonalLoop=1;jettySize=auto;html=1;endArrow=none;endFill=0;" edge="1" parent="1" source="CwhkoXtGilKc5GVSmAXC-74" target="CwhkoXtGilKc5GVSmAXC-80">
          <mxGeometry relative="1" as="geometry">
            <mxPoint x="145" y="1380" as="sourcePoint" />
            <mxPoint x="355" y="1640" as="targetPoint" />
          </mxGeometry>
        </mxCell>
        <mxCell id="CwhkoXtGilKc5GVSmAXC-84" style="edgeStyle=orthogonalEdgeStyle;rounded=0;orthogonalLoop=1;jettySize=auto;html=1;endArrow=none;endFill=0;curved=1;" edge="1" parent="1" source="CwhkoXtGilKc5GVSmAXC-85" target="CwhkoXtGilKc5GVSmAXC-86">
          <mxGeometry relative="1" as="geometry" />
        </mxCell>
        <mxCell id="CwhkoXtGilKc5GVSmAXC-93" style="edgeStyle=orthogonalEdgeStyle;rounded=0;orthogonalLoop=1;jettySize=auto;html=1;endArrow=none;endFill=0;curved=1;" edge="1" parent="1" source="CwhkoXtGilKc5GVSmAXC-85" target="CwhkoXtGilKc5GVSmAXC-92">
          <mxGeometry relative="1" as="geometry">
            <mxPoint x="230" y="1750" as="sourcePoint" />
            <mxPoint x="370" y="1850" as="targetPoint" />
            <Array as="points">
              <mxPoint x="65" y="1850" />
            </Array>
          </mxGeometry>
        </mxCell>
        <mxCell id="CwhkoXtGilKc5GVSmAXC-85" value="Utilisateur" style="shape=umlActor;verticalLabelPosition=bottom;verticalAlign=top;html=1;outlineConnect=0;" vertex="1" parent="1">
          <mxGeometry x="50" y="1690" width="30" height="60" as="geometry" />
        </mxCell>
        <mxCell id="CwhkoXtGilKc5GVSmAXC-86" value="Chercher un lieu" style="ellipse;whiteSpace=wrap;html=1;" vertex="1" parent="1">
          <mxGeometry x="190" y="1740" width="140" height="70" as="geometry" />
        </mxCell>
        <mxCell id="CwhkoXtGilKc5GVSmAXC-87" value="Sauvegarder un lieu" style="ellipse;whiteSpace=wrap;html=1;" vertex="1" parent="1">
          <mxGeometry x="380" y="1750" width="140" height="70" as="geometry" />
        </mxCell>
        <mxCell id="CwhkoXtGilKc5GVSmAXC-90" value="&amp;lt;&amp;lt;extend&amp;gt;&amp;gt;" style="html=1;verticalAlign=bottom;labelBackgroundColor=none;endArrow=open;endFill=0;dashed=1;rounded=0;" edge="1" parent="1" source="CwhkoXtGilKc5GVSmAXC-87" target="CwhkoXtGilKc5GVSmAXC-86">
          <mxGeometry width="160" relative="1" as="geometry">
            <mxPoint x="280" y="1580" as="sourcePoint" />
            <mxPoint x="440" y="1580" as="targetPoint" />
          </mxGeometry>
        </mxCell>
        <mxCell id="CwhkoXtGilKc5GVSmAXC-92" value="Se connecter&lt;br&gt;" style="ellipse;whiteSpace=wrap;html=1;" vertex="1" parent="1">
          <mxGeometry x="330" y="1870" width="110" height="70" as="geometry" />
        </mxCell>
        <mxCell id="CwhkoXtGilKc5GVSmAXC-95" value="&amp;lt;&amp;lt;include&amp;gt;&amp;gt;" style="html=1;verticalAlign=bottom;labelBackgroundColor=none;endArrow=open;endFill=0;dashed=1;rounded=0;" edge="1" parent="1" source="CwhkoXtGilKc5GVSmAXC-87" target="CwhkoXtGilKc5GVSmAXC-92">
          <mxGeometry width="160" relative="1" as="geometry">
            <mxPoint x="280" y="1740" as="sourcePoint" />
            <mxPoint x="440" y="1740" as="targetPoint" />
          </mxGeometry>
        </mxCell>
        <mxCell id="CwhkoXtGilKc5GVSmAXC-96" value="UC02 - Chercher un itinéraire" style="ellipse;whiteSpace=wrap;html=1;" vertex="1" parent="1">
          <mxGeometry x="390" y="1340" width="140" height="70" as="geometry" />
        </mxCell>
        <mxCell id="CwhkoXtGilKc5GVSmAXC-98" value="UC04 -Choisir un lieu de départ" style="ellipse;whiteSpace=wrap;html=1;" vertex="1" parent="1">
          <mxGeometry x="680" y="1230" width="140" height="70" as="geometry" />
        </mxCell>
        <mxCell id="CwhkoXtGilKc5GVSmAXC-99" value="UC05 - Choisir un lieu d&#39;arrivé" style="ellipse;whiteSpace=wrap;html=1;" vertex="1" parent="1">
          <mxGeometry x="720" y="1360" width="140" height="70" as="geometry" />
        </mxCell>
        <mxCell id="CwhkoXtGilKc5GVSmAXC-100" value="&amp;lt;&amp;lt;include&amp;gt;&amp;gt;" style="html=1;verticalAlign=bottom;labelBackgroundColor=none;endArrow=open;endFill=0;dashed=1;rounded=0;" edge="1" parent="1" source="CwhkoXtGilKc5GVSmAXC-96" target="CwhkoXtGilKc5GVSmAXC-98">
          <mxGeometry width="160" relative="1" as="geometry">
            <mxPoint x="280" y="1440" as="sourcePoint" />
            <mxPoint x="692.3751049859238" y="1294.8706534531298" as="targetPoint" />
          </mxGeometry>
        </mxCell>
        <mxCell id="CwhkoXtGilKc5GVSmAXC-101" value="&amp;lt;&amp;lt;include&amp;gt;&amp;gt;" style="html=1;verticalAlign=bottom;labelBackgroundColor=none;endArrow=open;endFill=0;dashed=1;rounded=0;" edge="1" parent="1" source="CwhkoXtGilKc5GVSmAXC-96" target="CwhkoXtGilKc5GVSmAXC-99">
          <mxGeometry width="160" relative="1" as="geometry">
            <mxPoint x="531" y="1368" as="sourcePoint" />
            <mxPoint x="701.2754104586791" y="1398.3492332701949" as="targetPoint" />
          </mxGeometry>
        </mxCell>
        <mxCell id="CwhkoXtGilKc5GVSmAXC-102" value="UC07 - Choisir mode transport" style="ellipse;whiteSpace=wrap;html=1;" vertex="1" parent="1">
          <mxGeometry x="470" y="1550" width="140" height="70" as="geometry" />
        </mxCell>
        <mxCell id="CwhkoXtGilKc5GVSmAXC-104" value="&amp;lt;&amp;lt;extend&amp;gt;&amp;gt;" style="html=1;verticalAlign=bottom;labelBackgroundColor=none;endArrow=open;endFill=0;dashed=1;rounded=0;" edge="1" parent="1" source="CwhkoXtGilKc5GVSmAXC-102" target="CwhkoXtGilKc5GVSmAXC-96">
          <mxGeometry width="160" relative="1" as="geometry">
            <mxPoint x="280" y="1440" as="sourcePoint" />
            <mxPoint x="440" y="1440" as="targetPoint" />
          </mxGeometry>
        </mxCell>
        <mxCell id="CwhkoXtGilKc5GVSmAXC-105" value="&amp;lt;&amp;lt;extend&amp;gt;&amp;gt;" style="html=1;verticalAlign=bottom;labelBackgroundColor=none;endArrow=open;endFill=0;dashed=1;rounded=0;" edge="1" parent="1" source="CwhkoXtGilKc5GVSmAXC-106" target="CwhkoXtGilKc5GVSmAXC-96">
          <mxGeometry width="160" relative="1" as="geometry">
            <mxPoint x="710" y="1500" as="sourcePoint" />
            <mxPoint x="483" y="1419" as="targetPoint" />
          </mxGeometry>
        </mxCell>
        <mxCell id="CwhkoXtGilKc5GVSmAXC-106" value="UC06 -Rajouter une étape" style="ellipse;whiteSpace=wrap;html=1;" vertex="1" parent="1">
          <mxGeometry x="640" y="1470" width="140" height="70" as="geometry" />
        </mxCell>
        <mxCell id="CwhkoXtGilKc5GVSmAXC-107" value="UC08 - Se connecter" style="ellipse;whiteSpace=wrap;html=1;" vertex="1" parent="1">
          <mxGeometry x="165" y="1570" width="140" height="70" as="geometry" />
        </mxCell>
        <mxCell id="CwhkoXtGilKc5GVSmAXC-108" value="&amp;lt;&amp;lt;include&amp;gt;&amp;gt;" style="html=1;verticalAlign=bottom;labelBackgroundColor=none;endArrow=open;endFill=0;dashed=1;rounded=0;" edge="1" parent="1" source="CwhkoXtGilKc5GVSmAXC-80" target="CwhkoXtGilKc5GVSmAXC-107">
          <mxGeometry width="160" relative="1" as="geometry">
            <mxPoint x="350" y="1440" as="sourcePoint" />
            <mxPoint x="510" y="1440" as="targetPoint" />
          </mxGeometry>
        </mxCell>
        <mxCell id="CwhkoXtGilKc5GVSmAXC-109" value="Avec extends tout peut devenir une option... ce n&#39;est pas la meilleure solution" style="text;html=1;strokeColor=#d79b00;fillColor=#ffe6cc;align=center;verticalAlign=middle;whiteSpace=wrap;rounded=0;" vertex="1" parent="1">
          <mxGeometry x="560" y="1790" width="240" height="30" as="geometry" />
        </mxCell>
      </root>
    </mxGraphModel>
  </diagram>
</mxfile>
